<svg xmlns="http://www.w3.org/2000/svg" version="1.1" xmlns:xlink="http://www.w3.org/1999/xlink" xmlns:svgjs="http://svgjs.dev/svgjs" viewBox="0 0 800 800" opacity="0.65" width="800" height="800"><g stroke-width="1" stroke="hsl(261, 60%, 38%)" fill="none"><rect width="133.33333333333334" height="133.33333333333334" x="0" y="0" opacity="0.15"></rect><circle r="4.934210526315789" cx="0" cy="0" fill="hsl(261, 60%, 38%)" stroke="none"></circle><rect width="133.33333333333334" height="133.33333333333334" x="133.33333333333334" y="0" opacity="0.15"></rect><circle r="4.934210526315789" cx="133.33333333333334" cy="0" fill="hsl(261, 60%, 38%)" stroke="none"></circle><rect width="133.33333333333334" height="133.33333333333334" x="266.6666666666667" y="0" opacity="0.15"></rect><circle r="4.934210526315789" cx="266.6666666666667" cy="0" fill="hsl(261, 60%, 38%)" stroke="none"></circle><rect width="133.33333333333334" height="133.33333333333334" x="400" y="0" opacity="0.15"></rect><circle r="4.934210526315789" cx="400" cy="0" fill="hsl(261, 60%, 38%)" stroke="none"></circle><rect width="133.33333333333334" height="133.33333333333334" x="533.3333333333334" y="0" opacity="0.15"></rect><circle r="4.934210526315789" cx="533.3333333333334" cy="0" fill="hsl(261, 60%, 38%)" stroke="none"></circle><rect width="133.33333333333334" height="133.33333333333334" x="666.6666666666667" y="0" opacity="0.15"></rect><circle r="4.934210526315789" cx="666.6666666666667" cy="0" fill="hsl(261, 60%, 38%)" stroke="none"></circle><rect width="133.33333333333334" height="133.33333333333334" x="800.0000000000001" y="0" opacity="0.15"></rect><circle r="4.934210526315789" cx="800.0000000000001" cy="0" fill="hsl(261, 60%, 38%)" stroke="none"></circle><rect width="133.33333333333334" height="133.33333333333334" x="0" y="133.33333333333334" opacity="0.15"></rect><circle r="4.934210526315789" cx="0" cy="133.33333333333334" fill="hsl(261, 60%, 38%)" stroke="none"></circle><rect width="133.33333333333334" height="133.33333333333334" x="133.33333333333334" y="133.33333333333334" opacity="0.15"></rect><circle r="4.934210526315789" cx="133.33333333333334" cy="133.33333333333334" fill="hsl(261, 60%, 38%)" stroke="none"></circle><rect width="133.33333333333334" height="133.33333333333334" x="266.6666666666667" y="133.33333333333334" opacity="0.15"></rect><circle r="4.934210526315789" cx="266.6666666666667" cy="133.33333333333334" fill="hsl(261, 60%, 38%)" stroke="none"></circle><rect width="133.33333333333334" height="133.33333333333334" x="400" y="133.33333333333334" opacity="0.15"></rect><circle r="4.934210526315789" cx="400" cy="133.33333333333334" fill="hsl(261, 60%, 38%)" stroke="none"></circle><rect width="133.33333333333334" height="133.33333333333334" x="533.3333333333334" y="133.33333333333334" opacity="0.15"></rect><circle r="4.934210526315789" cx="533.3333333333334" cy="133.33333333333334" fill="hsl(261, 60%, 38%)" stroke="none"></circle><rect width="133.33333333333334" height="133.33333333333334" x="666.6666666666667" y="133.33333333333334" opacity="0.15"></rect><circle r="4.934210526315789" cx="666.6666666666667" cy="133.33333333333334" fill="hsl(261, 60%, 38%)" stroke="none"></circle><rect width="133.33333333333334" height="133.33333333333334" x="800.0000000000001" y="133.33333333333334" opacity="0.15"></rect><circle r="4.934210526315789" cx="800.0000000000001" cy="133.33333333333334" fill="hsl(261, 60%, 38%)" stroke="none"></circle><rect width="133.33333333333334" height="133.33333333333334" x="0" y="266.6666666666667" opacity="0.15"></rect><circle r="4.934210526315789" cx="0" cy="266.6666666666667" fill="hsl(261, 60%, 38%)" stroke="none"></circle><rect width="133.33333333333334" height="133.33333333333334" x="133.33333333333334" y="266.6666666666667" opacity="0.15"></rect><circle r="4.934210526315789" cx="133.33333333333334" cy="266.6666666666667" fill="hsl(261, 60%, 38%)" stroke="none"></circle><rect width="133.33333333333334" height="133.33333333333334" x="266.6666666666667" y="266.6666666666667" opacity="0.15"></rect><circle r="4.934210526315789" cx="266.6666666666667" cy="266.6666666666667" fill="hsl(261, 60%, 38%)" stroke="none"></circle><rect width="133.33333333333334" height="133.33333333333334" x="400" y="266.6666666666667" opacity="0.15"></rect><circle r="4.934210526315789" cx="400" cy="266.6666666666667" fill="hsl(261, 60%, 38%)" stroke="none"></circle><rect width="133.33333333333334" height="133.33333333333334" x="533.3333333333334" y="266.6666666666667" opacity="0.15"></rect><circle r="4.934210526315789" cx="533.3333333333334" cy="266.6666666666667" fill="hsl(261, 60%, 38%)" stroke="none"></circle><rect width="133.33333333333334" height="133.33333333333334" x="666.6666666666667" y="266.6666666666667" opacity="0.15"></rect><circle r="4.934210526315789" cx="666.6666666666667" cy="266.6666666666667" fill="hsl(261, 60%, 38%)" stroke="none"></circle><rect width="133.33333333333334" height="133.33333333333334" x="800.0000000000001" y="266.6666666666667" opacity="0.15"></rect><circle r="4.934210526315789" cx="800.0000000000001" cy="266.6666666666667" fill="hsl(261, 60%, 38%)" stroke="none"></circle><rect width="133.33333333333334" height="133.33333333333334" x="0" y="400" opacity="0.15"></rect><circle r="4.934210526315789" cx="0" cy="400" fill="hsl(261, 60%, 38%)" stroke="none"></circle><rect width="133.33333333333334" height="133.33333333333334" x="133.33333333333334" y="400" opacity="0.15"></rect><circle r="4.934210526315789" cx="133.33333333333334" cy="400" fill="hsl(261, 60%, 38%)" stroke="none"></circle><rect width="133.33333333333334" height="133.33333333333334" x="266.6666666666667" y="400" opacity="0.15"></rect><circle r="4.934210526315789" cx="266.6666666666667" cy="400" fill="hsl(261, 60%, 38%)" stroke="none"></circle><rect width="133.33333333333334" height="133.33333333333334" x="400" y="400" opacity="0.15"></rect><circle r="4.934210526315789" cx="400" cy="400" fill="hsl(261, 60%, 38%)" stroke="none"></circle><rect width="133.33333333333334" height="133.33333333333334" x="533.3333333333334" y="400" opacity="0.15"></rect><circle r="4.934210526315789" cx="533.3333333333334" cy="400" fill="hsl(261, 60%, 38%)" stroke="none"></circle><rect width="133.33333333333334" height="133.33333333333334" x="666.6666666666667" y="400" opacity="0.15"></rect><circle r="4.934210526315789" cx="666.6666666666667" cy="400" fill="hsl(261, 60%, 38%)" stroke="none"></circle><rect width="133.33333333333334" height="133.33333333333334" x="800.0000000000001" y="400" opacity="0.15"></rect><circle r="4.934210526315789" cx="800.0000000000001" cy="400" fill="hsl(261, 60%, 38%)" stroke="none"></circle><rect width="133.33333333333334" height="133.33333333333334" x="0" y="533.3333333333334" opacity="0.15"></rect><circle r="4.934210526315789" cx="0" cy="533.3333333333334" fill="hsl(261, 60%, 38%)" stroke="none"></circle><rect width="133.33333333333334" height="133.33333333333334" x="133.33333333333334" y="533.3333333333334" opacity="0.15"></rect><circle r="4.934210526315789" cx="133.33333333333334" cy="533.3333333333334" fill="hsl(261, 60%, 38%)" stroke="none"></circle><rect width="133.33333333333334" height="133.33333333333334" x="266.6666666666667" y="533.3333333333334" opacity="0.15"></rect><circle r="4.934210526315789" cx="266.6666666666667" cy="533.3333333333334" fill="hsl(261, 60%, 38%)" stroke="none"></circle><rect width="133.33333333333334" height="133.33333333333334" x="400" y="533.3333333333334" opacity="0.15"></rect><circle r="4.934210526315789" cx="400" cy="533.3333333333334" fill="hsl(261, 60%, 38%)" stroke="none"></circle><rect width="133.33333333333334" height="133.33333333333334" x="533.3333333333334" y="533.3333333333334" opacity="0.15"></rect><circle r="4.934210526315789" cx="533.3333333333334" cy="533.3333333333334" fill="hsl(261, 60%, 38%)" stroke="none"></circle><rect width="133.33333333333334" height="133.33333333333334" x="666.6666666666667" y="533.3333333333334" opacity="0.15"></rect><circle r="4.934210526315789" cx="666.6666666666667" cy="533.3333333333334" fill="hsl(261, 60%, 38%)" stroke="none"></circle><rect width="133.33333333333334" height="133.33333333333334" x="800.0000000000001" y="533.3333333333334" opacity="0.15"></rect><circle r="4.934210526315789" cx="800.0000000000001" cy="533.3333333333334" fill="hsl(261, 60%, 38%)" stroke="none"></circle><rect width="133.33333333333334" height="133.33333333333334" x="0" y="666.6666666666667" opacity="0.15"></rect><circle r="4.934210526315789" cx="0" cy="666.6666666666667" fill="hsl(261, 60%, 38%)" stroke="none"></circle><rect width="133.33333333333334" height="133.33333333333334" x="133.33333333333334" y="666.6666666666667" opacity="0.15"></rect><circle r="4.934210526315789" cx="133.33333333333334" cy="666.6666666666667" fill="hsl(261, 60%, 38%)" stroke="none"></circle><rect width="133.33333333333334" height="133.33333333333334" x="266.6666666666667" y="666.6666666666667" opacity="0.15"></rect><circle r="4.934210526315789" cx="266.6666666666667" cy="666.6666666666667" fill="hsl(261, 60%, 38%)" stroke="none"></circle><rect width="133.33333333333334" height="133.33333333333334" x="400" y="666.6666666666667" opacity="0.15"></rect><circle r="4.934210526315789" cx="400" cy="666.6666666666667" fill="hsl(261, 60%, 38%)" stroke="none"></circle><rect width="133.33333333333334" height="133.33333333333334" x="533.3333333333334" y="666.6666666666667" opacity="0.15"></rect><circle r="4.934210526315789" cx="533.3333333333334" cy="666.6666666666667" fill="hsl(261, 60%, 38%)" stroke="none"></circle><rect width="133.33333333333334" height="133.33333333333334" x="666.6666666666667" y="666.6666666666667" opacity="0.15"></rect><circle r="4.934210526315789" cx="666.6666666666667" cy="666.6666666666667" fill="hsl(261, 60%, 38%)" stroke="none"></circle><rect width="133.33333333333334" height="133.33333333333334" x="800.0000000000001" y="666.6666666666667" opacity="0.15"></rect><circle r="4.934210526315789" cx="800.0000000000001" cy="666.6666666666667" fill="hsl(261, 60%, 38%)" stroke="none"></circle><rect width="133.33333333333334" height="133.33333333333334" x="0" y="800.0000000000001" opacity="0.15"></rect><circle r="4.934210526315789" cx="0" cy="800.0000000000001" fill="hsl(261, 60%, 38%)" stroke="none"></circle><rect width="133.33333333333334" height="133.33333333333334" x="133.33333333333334" y="800.0000000000001" opacity="0.15"></rect><circle r="4.934210526315789" cx="133.33333333333334" cy="800.0000000000001" fill="hsl(261, 60%, 38%)" stroke="none"></circle><rect width="133.33333333333334" height="133.33333333333334" x="266.6666666666667" y="800.0000000000001" opacity="0.15"></rect><circle r="4.934210526315789" cx="266.6666666666667" cy="800.0000000000001" fill="hsl(261, 60%, 38%)" stroke="none"></circle><rect width="133.33333333333334" height="133.33333333333334" x="400" y="800.0000000000001" opacity="0.15"></rect><circle r="4.934210526315789" cx="400" cy="800.0000000000001" fill="hsl(261, 60%, 38%)" stroke="none"></circle><rect width="133.33333333333334" height="133.33333333333334" x="533.3333333333334" y="800.0000000000001" opacity="0.15"></rect><circle r="4.934210526315789" cx="533.3333333333334" cy="800.0000000000001" fill="hsl(261, 60%, 38%)" stroke="none"></circle><rect width="133.33333333333334" height="133.33333333333334" x="666.6666666666667" y="800.0000000000001" opacity="0.15"></rect><circle r="4.934210526315789" cx="666.6666666666667" cy="800.0000000000001" fill="hsl(261, 60%, 38%)" stroke="none"></circle><rect width="133.33333333333334" height="133.33333333333334" x="800.0000000000001" y="800.0000000000001" opacity="0.15"></rect><circle r="4.934210526315789" cx="800.0000000000001" cy="800.0000000000001" fill="hsl(261, 60%, 38%)" stroke="none"></circle></g></svg>